# xmcd
#
# Track frame offsets:
#	150
#	24640
#	42162
#	64647
#	87647
#	103738
#	122428
#	135616
#	153736
#	173237
#	194915
#	211359
#	240931
#	252761
#	287875
#	296793
#	311367
#
# Disc length: 4377 seconds
#
# Revision: 0
# Processed by: cddbd v1.5.1PL0 Copyright (c) Steve Scherf et al.
# Submitted via: dBpowerAMP V4.0
#
DISCID=fd111711
DTITLE=Solomon Burke - King Of Blues 'N' Soul
DYEAR=2000
DGENRE=Soul
TTITLE0=Good Rockin' Tonight
TTITLE1=Sufferin' Mind
TTITLE2=Letter From My Darling
TTITLE3=My Babe
TTITLE4=Don't Deceive Me
TTITLE5=Candy
TTITLE6=Crawdad Hole
TTITLE7=Along About Midnight
TTITLE8=Pledging My Love
TTITLE9=Lonesome Highway
TTITLE10=Street Walking Woman
TTITLE11=No Nights By Myself
TTITLE12=Everybody Needs Somebody To Love
TTITLE13=If You Need Me/Tonight's The Night/I   Almost Lost My Mind
TTITLE14=Cry To Me
TTITLE15=Got To Get You Off My Mind
TTITLE16=Down In The Valley
EXTD=
EXTT0=
EXTT1=
EXTT2=
EXTT3=
EXTT4=
EXTT5=
EXTT6=
EXTT7=
EXTT8=
EXTT9=
EXTT10=
EXTT11=
EXTT12=
EXTT13=
EXTT14=
EXTT15=
EXTT16=
PLAYORDER=
